<mxfile host="app.diagrams.net" modified="2024-03-07T00:00:11.642Z" agent="Mozilla/5.0 (Windows NT 10.0; Win64; x64) AppleWebKit/537.36 (KHTML, like Gecko) Chrome/122.0.0.0 Safari/537.36" etag="bmyEpHMaZr9DoFeFcnKd" version="24.0.2" type="google">
  <diagram name="Page-1" id="eXcyvKMN39GhYmfKrL5L">
    <mxGraphModel grid="1" page="1" gridSize="10" guides="1" tooltips="1" connect="1" arrows="1" fold="1" pageScale="1" pageWidth="1169" pageHeight="827" math="0" shadow="0">
      <root>
        <mxCell id="0" />
        <mxCell id="1" parent="0" />
        <mxCell id="Hx0Y5OaaXod5DKXLa0j5-1" style="edgeStyle=orthogonalEdgeStyle;rounded=0;orthogonalLoop=1;jettySize=auto;html=1;entryX=0.5;entryY=0;entryDx=0;entryDy=0;exitX=0;exitY=0.5;exitDx=0;exitDy=0;" edge="1" parent="1" source="Hx0Y5OaaXod5DKXLa0j5-4">
          <mxGeometry relative="1" as="geometry">
            <Array as="points">
              <mxPoint x="310" y="350" />
            </Array>
            <mxPoint x="310" y="450" as="targetPoint" />
          </mxGeometry>
        </mxCell>
        <mxCell id="Hx0Y5OaaXod5DKXLa0j5-2" value="&lt;span style=&quot;font-size: 10px;&quot;&gt;Request Service&lt;/span&gt;" style="rounded=1;arcSize=10;whiteSpace=wrap;html=1;align=center;" vertex="1" parent="1">
          <mxGeometry x="280" y="240" width="160" height="40" as="geometry" />
        </mxCell>
        <mxCell id="Hx0Y5OaaXod5DKXLa0j5-3" value="Room Reservation" style="rounded=1;arcSize=10;whiteSpace=wrap;html=1;align=center;" vertex="1" parent="1">
          <mxGeometry x="150" y="290" width="100" height="40" as="geometry" />
        </mxCell>
        <mxCell id="Hx0Y5OaaXod5DKXLa0j5-4" value="Room Services" style="rounded=1;arcSize=10;whiteSpace=wrap;html=1;align=center;" vertex="1" parent="1">
          <mxGeometry x="440" y="330" width="100" height="40" as="geometry" />
        </mxCell>
        <mxCell id="Hx0Y5OaaXod5DKXLa0j5-5" value="Search for rooms" style="rounded=1;arcSize=10;whiteSpace=wrap;html=1;align=center;" vertex="1" parent="1">
          <mxGeometry x="150" y="350" width="100" height="40" as="geometry" />
        </mxCell>
        <mxCell id="Hx0Y5OaaXod5DKXLa0j5-6" value="Select room" style="rounded=1;arcSize=10;whiteSpace=wrap;html=1;align=center;" vertex="1" parent="1">
          <mxGeometry x="150" y="410" width="100" height="40" as="geometry" />
        </mxCell>
        <mxCell id="Hx0Y5OaaXod5DKXLa0j5-7" value="Check room detail" style="rounded=1;arcSize=10;whiteSpace=wrap;html=1;align=center;" vertex="1" parent="1">
          <mxGeometry x="150" y="470" width="100" height="40" as="geometry" />
        </mxCell>
        <mxCell id="Hx0Y5OaaXod5DKXLa0j5-8" value="Confirm reservation" style="rounded=1;arcSize=10;whiteSpace=wrap;html=1;align=center;" vertex="1" parent="1">
          <mxGeometry x="150" y="530" width="100" height="40" as="geometry" />
        </mxCell>
        <mxCell id="Hx0Y5OaaXod5DKXLa0j5-9" value="Receive confirmation" style="rounded=1;arcSize=10;whiteSpace=wrap;html=1;align=center;" vertex="1" parent="1">
          <mxGeometry x="150" y="590" width="100" height="40" as="geometry" />
        </mxCell>
        <mxCell id="Hx0Y5OaaXod5DKXLa0j5-10" value="Housekeeping" style="rounded=1;arcSize=10;whiteSpace=wrap;html=1;align=center;" vertex="1" parent="1">
          <mxGeometry x="260" y="450" width="100" height="40" as="geometry" />
        </mxCell>
        <mxCell id="Hx0Y5OaaXod5DKXLa0j5-11" value="In-room dining" style="rounded=1;arcSize=10;whiteSpace=wrap;html=1;align=center;" vertex="1" parent="1">
          <mxGeometry x="370" y="450" width="100" height="40" as="geometry" />
        </mxCell>
        <mxCell id="Hx0Y5OaaXod5DKXLa0j5-12" value="Room maintenance" style="rounded=1;arcSize=10;whiteSpace=wrap;html=1;align=center;" vertex="1" parent="1">
          <mxGeometry x="510" y="450" width="100" height="40" as="geometry" />
        </mxCell>
        <mxCell id="Hx0Y5OaaXod5DKXLa0j5-13" value="Wake-up calls" style="rounded=1;arcSize=10;whiteSpace=wrap;html=1;align=center;" vertex="1" parent="1">
          <mxGeometry x="620" y="450" width="100" height="40" as="geometry" />
        </mxCell>
        <mxCell id="Hx0Y5OaaXod5DKXLa0j5-14" value="Submit request" style="rounded=1;arcSize=10;whiteSpace=wrap;html=1;align=center;" vertex="1" parent="1">
          <mxGeometry x="440" y="570" width="100" height="40" as="geometry" />
        </mxCell>
        <mxCell id="Hx0Y5OaaXod5DKXLa0j5-15" value="" style="strokeWidth=2;html=1;shape=mxgraph.flowchart.decision;whiteSpace=wrap;" vertex="1" parent="1">
          <mxGeometry x="330" y="630" width="40" height="40" as="geometry" />
        </mxCell>
        <mxCell id="Hx0Y5OaaXod5DKXLa0j5-16" value="" style="edgeStyle=segmentEdgeStyle;endArrow=classic;html=1;curved=0;rounded=0;endSize=8;startSize=8;entryX=0.5;entryY=0;entryDx=0;entryDy=0;exitX=0;exitY=0.5;exitDx=0;exitDy=0;" edge="1" parent="1" source="Hx0Y5OaaXod5DKXLa0j5-2" target="Hx0Y5OaaXod5DKXLa0j5-3">
          <mxGeometry width="50" height="50" relative="1" as="geometry">
            <mxPoint x="530" y="590" as="sourcePoint" />
            <mxPoint x="580" y="540" as="targetPoint" />
          </mxGeometry>
        </mxCell>
        <mxCell id="Hx0Y5OaaXod5DKXLa0j5-17" value="" style="edgeStyle=segmentEdgeStyle;endArrow=classic;html=1;curved=0;rounded=0;endSize=8;startSize=8;entryX=0.5;entryY=0;entryDx=0;entryDy=0;exitX=0.5;exitY=1;exitDx=0;exitDy=0;" edge="1" parent="1" source="Hx0Y5OaaXod5DKXLa0j5-3" target="Hx0Y5OaaXod5DKXLa0j5-5">
          <mxGeometry width="50" height="50" relative="1" as="geometry">
            <mxPoint x="490" y="505" as="sourcePoint" />
            <mxPoint x="410" y="595" as="targetPoint" />
          </mxGeometry>
        </mxCell>
        <mxCell id="Hx0Y5OaaXod5DKXLa0j5-18" value="" style="edgeStyle=segmentEdgeStyle;endArrow=classic;html=1;curved=0;rounded=0;endSize=8;startSize=8;entryX=0.5;entryY=0;entryDx=0;entryDy=0;exitX=0.5;exitY=1;exitDx=0;exitDy=0;" edge="1" parent="1" source="Hx0Y5OaaXod5DKXLa0j5-6" target="Hx0Y5OaaXod5DKXLa0j5-7">
          <mxGeometry width="50" height="50" relative="1" as="geometry">
            <mxPoint x="580" y="580" as="sourcePoint" />
            <mxPoint x="580" y="670" as="targetPoint" />
          </mxGeometry>
        </mxCell>
        <mxCell id="Hx0Y5OaaXod5DKXLa0j5-19" value="" style="edgeStyle=segmentEdgeStyle;endArrow=classic;html=1;curved=0;rounded=0;endSize=8;startSize=8;entryX=0.5;entryY=0;entryDx=0;entryDy=0;exitX=0.5;exitY=1;exitDx=0;exitDy=0;" edge="1" parent="1" source="Hx0Y5OaaXod5DKXLa0j5-5" target="Hx0Y5OaaXod5DKXLa0j5-6">
          <mxGeometry width="50" height="50" relative="1" as="geometry">
            <mxPoint x="590" y="590" as="sourcePoint" />
            <mxPoint x="590" y="680" as="targetPoint" />
          </mxGeometry>
        </mxCell>
        <mxCell id="Hx0Y5OaaXod5DKXLa0j5-20" value="" style="edgeStyle=segmentEdgeStyle;endArrow=classic;html=1;curved=0;rounded=0;endSize=8;startSize=8;entryX=0.5;entryY=0;entryDx=0;entryDy=0;exitX=0.5;exitY=1;exitDx=0;exitDy=0;" edge="1" parent="1" source="Hx0Y5OaaXod5DKXLa0j5-7" target="Hx0Y5OaaXod5DKXLa0j5-8">
          <mxGeometry width="50" height="50" relative="1" as="geometry">
            <mxPoint x="600" y="600" as="sourcePoint" />
            <mxPoint x="600" y="690" as="targetPoint" />
          </mxGeometry>
        </mxCell>
        <mxCell id="Hx0Y5OaaXod5DKXLa0j5-21" value="" style="edgeStyle=segmentEdgeStyle;endArrow=classic;html=1;curved=0;rounded=0;endSize=8;startSize=8;exitX=0.5;exitY=1;exitDx=0;exitDy=0;" edge="1" parent="1" source="Hx0Y5OaaXod5DKXLa0j5-8" target="Hx0Y5OaaXod5DKXLa0j5-9">
          <mxGeometry width="50" height="50" relative="1" as="geometry">
            <mxPoint x="610" y="610" as="sourcePoint" />
            <mxPoint x="610" y="700" as="targetPoint" />
          </mxGeometry>
        </mxCell>
        <mxCell id="Hx0Y5OaaXod5DKXLa0j5-22" value="&lt;span style=&quot;color: rgba(0, 0, 0, 0); font-family: monospace; font-size: 0px; text-align: start;&quot;&gt;%3CmxGraphModel%3E%3Croot%3E%3CmxCell%20id%3D%220%22%2F%3E%3CmxCell%20id%3D%221%22%20parent%3D%220%22%2F%3E%3CmxCell%20id%3D%222%22%20value%3D%22%22%20style%3D%22edgeStyle%3DsegmentEdgeStyle%3BendArrow%3Dclassic%3Bhtml%3D1%3Bcurved%3D0%3Brounded%3D0%3BendSize%3D8%3BstartSize%3D8%3BentryX%3D0.5%3BentryY%3D0%3BentryDx%3D0%3BentryDy%3D0%3B%22%20edge%3D%221%22%20parent%3D%221%22%3E%3CmxGeometry%20width%3D%2250%22%20height%3D%2250%22%20relative%3D%221%22%20as%3D%22geometry%22%3E%3CmxPoint%20x%3D%22440%22%20y%3D%22530%22%20as%3D%22sourcePoint%22%2F%3E%3CmxPoint%20x%3D%22440%22%20y%3D%22620%22%20as%3D%22targetPoint%22%2F%3E%3C%2FmxGeometry%3E%3C%2FmxCell%3E%3C%2Froot%3E%3C%2FmxGraphModel%3E&lt;/span&gt;" style="text;html=1;align=center;verticalAlign=middle;resizable=0;points=[];autosize=1;strokeColor=none;fillColor=none;" vertex="1" parent="1">
          <mxGeometry x="510" y="608" width="20" height="30" as="geometry" />
        </mxCell>
        <mxCell id="Hx0Y5OaaXod5DKXLa0j5-23" value="" style="edgeStyle=elbowEdgeStyle;elbow=horizontal;endArrow=classic;html=1;curved=0;rounded=0;endSize=8;startSize=8;exitX=0.5;exitY=1;exitDx=0;exitDy=0;entryX=0;entryY=0.5;entryDx=0;entryDy=0;entryPerimeter=0;" edge="1" parent="1" source="Hx0Y5OaaXod5DKXLa0j5-9" target="Hx0Y5OaaXod5DKXLa0j5-15">
          <mxGeometry width="50" height="50" relative="1" as="geometry">
            <mxPoint x="530" y="490" as="sourcePoint" />
            <mxPoint x="580" y="440" as="targetPoint" />
            <Array as="points">
              <mxPoint x="200" y="670" />
            </Array>
          </mxGeometry>
        </mxCell>
        <mxCell id="Hx0Y5OaaXod5DKXLa0j5-24" value="" style="edgeStyle=segmentEdgeStyle;endArrow=classic;html=1;curved=0;rounded=0;endSize=8;startSize=8;entryX=0.5;entryY=0;entryDx=0;entryDy=0;exitX=1;exitY=0.5;exitDx=0;exitDy=0;" edge="1" parent="1" source="Hx0Y5OaaXod5DKXLa0j5-2" target="Hx0Y5OaaXod5DKXLa0j5-4">
          <mxGeometry width="50" height="50" relative="1" as="geometry">
            <mxPoint x="530" y="490" as="sourcePoint" />
            <mxPoint x="580" y="440" as="targetPoint" />
          </mxGeometry>
        </mxCell>
        <mxCell id="Hx0Y5OaaXod5DKXLa0j5-25" value="" style="edgeStyle=segmentEdgeStyle;endArrow=classic;html=1;curved=0;rounded=0;endSize=8;startSize=8;entryX=0.5;entryY=0;entryDx=0;entryDy=0;exitX=0;exitY=0.5;exitDx=0;exitDy=0;" edge="1" parent="1" source="Hx0Y5OaaXod5DKXLa0j5-4" target="Hx0Y5OaaXod5DKXLa0j5-11">
          <mxGeometry width="50" height="50" relative="1" as="geometry">
            <mxPoint x="410" y="250" as="sourcePoint" />
            <mxPoint x="480" y="340" as="targetPoint" />
            <Array as="points">
              <mxPoint x="420" y="350" />
            </Array>
          </mxGeometry>
        </mxCell>
        <mxCell id="Hx0Y5OaaXod5DKXLa0j5-26" value="" style="edgeStyle=segmentEdgeStyle;endArrow=classic;html=1;curved=0;rounded=0;endSize=8;startSize=8;entryX=0.5;entryY=0;entryDx=0;entryDy=0;exitX=1;exitY=0.5;exitDx=0;exitDy=0;" edge="1" parent="1" source="Hx0Y5OaaXod5DKXLa0j5-4" target="Hx0Y5OaaXod5DKXLa0j5-12">
          <mxGeometry width="50" height="50" relative="1" as="geometry">
            <mxPoint x="420" y="260" as="sourcePoint" />
            <mxPoint x="490" y="350" as="targetPoint" />
          </mxGeometry>
        </mxCell>
        <mxCell id="Hx0Y5OaaXod5DKXLa0j5-27" value="" style="edgeStyle=segmentEdgeStyle;endArrow=classic;html=1;curved=0;rounded=0;endSize=8;startSize=8;entryX=0.5;entryY=0;entryDx=0;entryDy=0;exitX=1;exitY=0.5;exitDx=0;exitDy=0;" edge="1" parent="1" source="Hx0Y5OaaXod5DKXLa0j5-4" target="Hx0Y5OaaXod5DKXLa0j5-13">
          <mxGeometry width="50" height="50" relative="1" as="geometry">
            <mxPoint x="430" y="270" as="sourcePoint" />
            <mxPoint x="500" y="360" as="targetPoint" />
          </mxGeometry>
        </mxCell>
        <mxCell id="Hx0Y5OaaXod5DKXLa0j5-28" value="" style="edgeStyle=segmentEdgeStyle;endArrow=classic;html=1;curved=0;rounded=0;endSize=8;startSize=8;exitX=0.5;exitY=1;exitDx=0;exitDy=0;entryX=0;entryY=0.5;entryDx=0;entryDy=0;" edge="1" parent="1" target="Hx0Y5OaaXod5DKXLa0j5-14">
          <mxGeometry width="50" height="50" relative="1" as="geometry">
            <mxPoint x="310" y="490" as="sourcePoint" />
            <mxPoint x="540" y="680" as="targetPoint" />
            <Array as="points">
              <mxPoint x="310" y="590" />
            </Array>
          </mxGeometry>
        </mxCell>
        <mxCell id="Hx0Y5OaaXod5DKXLa0j5-29" value="" style="edgeStyle=orthogonalEdgeStyle;endArrow=classic;html=1;rounded=0;endSize=8;startSize=8;entryX=1;entryY=0.5;entryDx=0;entryDy=0;exitX=0.5;exitY=1;exitDx=0;exitDy=0;" edge="1" parent="1" source="Hx0Y5OaaXod5DKXLa0j5-13" target="Hx0Y5OaaXod5DKXLa0j5-14">
          <mxGeometry width="50" height="50" relative="1" as="geometry">
            <mxPoint x="730" y="570" as="sourcePoint" />
            <mxPoint x="600" y="746" as="targetPoint" />
          </mxGeometry>
        </mxCell>
        <mxCell id="Hx0Y5OaaXod5DKXLa0j5-30" value="" style="edgeStyle=orthogonalEdgeStyle;endArrow=classic;html=1;rounded=0;endSize=8;startSize=8;entryX=1;entryY=0.5;entryDx=0;entryDy=0;exitX=0.5;exitY=1;exitDx=0;exitDy=0;" edge="1" parent="1" source="Hx0Y5OaaXod5DKXLa0j5-12" target="Hx0Y5OaaXod5DKXLa0j5-14">
          <mxGeometry width="50" height="50" relative="1" as="geometry">
            <mxPoint x="770" y="740" as="sourcePoint" />
            <mxPoint x="640" y="878" as="targetPoint" />
          </mxGeometry>
        </mxCell>
        <mxCell id="Hx0Y5OaaXod5DKXLa0j5-31" value="" style="edgeStyle=orthogonalEdgeStyle;endArrow=classic;html=1;rounded=0;endSize=8;startSize=8;entryX=0;entryY=0.5;entryDx=0;entryDy=0;exitX=0.5;exitY=1;exitDx=0;exitDy=0;" edge="1" parent="1" source="Hx0Y5OaaXod5DKXLa0j5-11" target="Hx0Y5OaaXod5DKXLa0j5-14">
          <mxGeometry width="50" height="50" relative="1" as="geometry">
            <mxPoint x="690" y="510" as="sourcePoint" />
            <mxPoint x="560" y="648" as="targetPoint" />
          </mxGeometry>
        </mxCell>
        <mxCell id="Hx0Y5OaaXod5DKXLa0j5-32" value="" style="edgeStyle=segmentEdgeStyle;endArrow=classic;html=1;curved=0;rounded=0;endSize=8;startSize=8;entryX=1;entryY=0.5;entryDx=0;entryDy=0;entryPerimeter=0;exitX=0.5;exitY=1;exitDx=0;exitDy=0;" edge="1" parent="1" source="Hx0Y5OaaXod5DKXLa0j5-14" target="Hx0Y5OaaXod5DKXLa0j5-15">
          <mxGeometry width="50" height="50" relative="1" as="geometry">
            <mxPoint x="530" y="690" as="sourcePoint" />
            <mxPoint x="580" y="640" as="targetPoint" />
            <Array as="points">
              <mxPoint x="490" y="650" />
            </Array>
          </mxGeometry>
        </mxCell>
        <mxCell id="Hx0Y5OaaXod5DKXLa0j5-33" value="Book&amp;nbsp; a room" style="text;html=1;align=center;verticalAlign=middle;whiteSpace=wrap;rounded=0;" vertex="1" parent="1">
          <mxGeometry x="180" y="230" width="80" height="30" as="geometry" />
        </mxCell>
        <mxCell id="Hx0Y5OaaXod5DKXLa0j5-34" value="Request room aservice" style="text;html=1;align=center;verticalAlign=middle;whiteSpace=wrap;rounded=0;" vertex="1" parent="1">
          <mxGeometry x="460" y="230" width="80" height="30" as="geometry" />
        </mxCell>
        <mxCell id="Hx0Y5OaaXod5DKXLa0j5-35" style="edgeStyle=orthogonalEdgeStyle;rounded=0;orthogonalLoop=1;jettySize=auto;html=1;exitX=0.5;exitY=1;exitDx=0;exitDy=0;entryX=0.5;entryY=0;entryDx=0;entryDy=0;" edge="1" parent="1" source="Hx0Y5OaaXod5DKXLa0j5-36" target="Hx0Y5OaaXod5DKXLa0j5-38">
          <mxGeometry relative="1" as="geometry" />
        </mxCell>
        <mxCell id="Hx0Y5OaaXod5DKXLa0j5-36" value="Input username and password" style="rounded=1;arcSize=10;whiteSpace=wrap;html=1;align=center;" vertex="1" parent="1">
          <mxGeometry x="310" y="120" width="100" height="40" as="geometry" />
        </mxCell>
        <mxCell id="Hx0Y5OaaXod5DKXLa0j5-37" style="edgeStyle=orthogonalEdgeStyle;rounded=0;orthogonalLoop=1;jettySize=auto;html=1;exitX=0.5;exitY=1;exitDx=0;exitDy=0;entryX=0.5;entryY=0;entryDx=0;entryDy=0;" edge="1" parent="1" source="Hx0Y5OaaXod5DKXLa0j5-38" target="Hx0Y5OaaXod5DKXLa0j5-2">
          <mxGeometry relative="1" as="geometry" />
        </mxCell>
        <mxCell id="Hx0Y5OaaXod5DKXLa0j5-38" value="Log into account" style="rounded=1;arcSize=10;whiteSpace=wrap;html=1;align=center;" vertex="1" parent="1">
          <mxGeometry x="310" y="180" width="100" height="40" as="geometry" />
        </mxCell>
        <mxCell id="Hx0Y5OaaXod5DKXLa0j5-39" value="" style="ellipse;html=1;shape=startState;fillColor=#000000;strokeColor=#000000;" vertex="1" parent="1">
          <mxGeometry x="345" y="50" width="30" height="30" as="geometry" />
        </mxCell>
        <mxCell id="Hx0Y5OaaXod5DKXLa0j5-40" value="" style="edgeStyle=orthogonalEdgeStyle;html=1;verticalAlign=bottom;endArrow=open;endSize=8;strokeColor=#000000;rounded=0;entryX=0.5;entryY=0;entryDx=0;entryDy=0;" edge="1" parent="1" source="Hx0Y5OaaXod5DKXLa0j5-39" target="Hx0Y5OaaXod5DKXLa0j5-36">
          <mxGeometry relative="1" as="geometry">
            <mxPoint x="365" y="120" as="targetPoint" />
            <mxPoint x="360" y="40" as="sourcePoint" />
            <Array as="points" />
          </mxGeometry>
        </mxCell>
        <mxCell id="Hx0Y5OaaXod5DKXLa0j5-42" value="&lt;font style=&quot;font-size: 18px;&quot;&gt;&lt;b style=&quot;&quot;&gt;User&lt;/b&gt;&lt;/font&gt;" style="text;html=1;align=center;verticalAlign=middle;whiteSpace=wrap;rounded=0;" vertex="1" parent="1">
          <mxGeometry x="280" y="45" width="80" height="40" as="geometry" />
        </mxCell>
      </root>
    </mxGraphModel>
  </diagram>
</mxfile>
